<?xml version="1.0" encoding="utf-8"?>
<!-- Generator: Adobe Illustrator 18.0.0, SVG Export Plug-In . SVG Version: 6.00 Build 0)  -->
<!DOCTYPE svg PUBLIC "-//W3C//DTD SVG 1.1//EN" "http://www.w3.org/Graphics/SVG/1.1/DTD/svg11.dtd">
<svg version="1.1" xmlns="http://www.w3.org/2000/svg" xmlns:xlink="http://www.w3.org/1999/xlink" x="0px" y="0px"
	 viewBox="0 0 213.4 195.7" enable-background="new 0 0 213.4 195.7" xml:space="preserve">
<g id="Calque_2">
</g>
<g id="Calque_7">
</g>
<g id="Calque_8">
	<g>
		<path fill="#FFFFFF" d="M93.3,79.8c-2-4.3-0.1-8.7,1.4-12.1c1.2-2.7,2.2-5,1.4-6.5c-0.2-0.5-0.7-1-1.5-1.6
			c-7.4,0.4-14.5,1.7-21.1,3.7c0.9,3.3-0.5,6.6-1.8,9.6c-1.2,2.9-2.4,5.6-1.4,7.7c0.5,1.1,1.5,2.2,3.1,3.2c7.3,0,15.1,0,23,0
			C95,82.5,94,81.2,93.3,79.8z"/>
		<path fill="#FFFFFF" d="M65.3,82.8c-2-4.3-0.1-8.7,1.4-12.1c1-2.2,1.8-4.2,1.6-5.7C57,69.3,47.5,75.8,41.2,83.7
			c4.3,0,13.4,0,24.7,0C65.6,83.4,65.5,83.1,65.3,82.8z"/>
		<path fill="#FFFFFF" d="M124.3,80.8c-2-4.3-0.1-8.7,1.4-12.1c0.9-2,1.7-3.8,1.7-5.3c-8-2.5-16.9-3.9-26.2-4
			c1.4,3.6-0.2,7.2-1.5,10.4c-1.2,2.9-2.4,5.6-1.4,7.7c1,2.2,4.3,4.3,9.7,6.2c6.3,0,12.6,0,18.3,0C125.5,82.8,124.8,81.8,124.3,80.8
			z"/>
	</g>
</g>
<g id="Calque_3">
	<polygon fill="#FFFFFF" points="58.1,160.2 61.4,163.5 213.4,17.5 204.2,7.7 	"/>
	<polygon fill="#FFFFFF" points="115.4,171.2 169,3.5 158.3,0 111.7,170 	"/>
	<polygon fill="#FFFFFF" points="61.4,163.5 139.3,88.7 126.6,88.7 58.1,160.2 	"/>
	<g>
		<path fill="#FFFFFF" d="M143.9,70.7L133,82.1c0.9,0.6,2,1.1,3.3,1.6c2.9,0,5.7,0,8.2,0l7.5-7.2C149.5,74.4,146.8,72.4,143.9,70.7z
			"/>
		<path fill="#FFFFFF" d="M151.7,83.7c4,0,6.6,0,7.5,0c-1.1-1.3-2.2-2.6-3.5-3.9L151.7,83.7z"/>
	</g>
	<path fill="#FFFFFF" d="M129.3,78.6l5.6-5.8l1.6-6c-1.3-0.6-2.6-1.1-3.9-1.7c-0.3,1.9-1.2,3.8-1.9,5.6c-1.2,2.9-2.4,5.6-1.4,7.7
		C129.2,78.6,129.3,78.6,129.3,78.6z"/>
	<g>
		<polygon fill="#FFFFFF" points="115.4,171.2 139.7,95.2 129.5,105 111.7,170 		"/>
		<path fill="#FFFFFF" d="M200,88.7h-53.5l-1.8,1.7l-26.2,81.9l-1,3.2l-3.2-1l-3.7-1.2l-3.1-1l0.8-3.1l16.4-59.7l-60,57.6l-3.6,3.5
			l-3.5-3.6l-3.2-3.4l-3.3-3.5l3.3-3.5l65.2-68H100H0c0,0-2.5,65.8,68.5,95.5c-10.7,2.8-16,11.5-16,11.5H100h47.5
			c0,0-5.3-8.8-16-11.5C202.5,154.4,200,88.7,200,88.7z"/>
	</g>
</g>
</svg>
