<svg id="Calque_1" data-name="Calque 1" xmlns="http://www.w3.org/2000/svg" viewBox="0 0 60.78 57.76"><defs><style>.cls-1{fill:#fff;}</style></defs><title>panneau</title><path d="M60.35,14.78L49.76,5.25H27.3V1.05a1.05,1.05,0,0,0-2.1,0v4.2H0v21H25.2V57.76a1.05,1.05,0,1,0,2.1,0V26.25H49.76l10.59-9.53A1.3,1.3,0,0,0,60.35,14.78Z"/><path class="cls-1" d="M8.72,16.31a0,0,0,0,1,0,0l0,0.24V16.7l-0.12.19-0.14.29,0,0.08-0.11-.06-0.09,0v0.12H8.09l0.09,0.05,0,0-0.28.23-0.23.16a1.08,1.08,0,0,1-.33.18,1.86,1.86,0,0,1-.37.21,1.42,1.42,0,0,1-.37.09,4.41,4.41,0,0,1-.53,0,3.37,3.37,0,0,1-.59,0A2.14,2.14,0,0,1,5,18.16L5,18.24,4.8,18.17l-0.1,0a0.51,0.51,0,0,0-.23-0.09l0,0H4.37l-0.26,0A0.26,0.26,0,0,1,4,18L3.86,18l0,0.07-0.07.05-0.14.07-0.08,0,0-.14V18l0.11-.08L4,17.75l0.12-.17,0.07-.1,0-.74,0-.08,0-.11,0.09-.25-0.07,0V16.14a1.55,1.55,0,0,1,0-.27l0.07,0,0,0-0.06-.2,0-.14-0.08-.19,0-.32,0-.09H4.16l0-.13,0-.11,0,0V14.52l0-.22,0-.2,0-.11,0-.07,0-.05,0-.05a0.37,0.37,0,0,1,0-.1,2,2,0,0,1,0-.22V13.37a0.09,0.09,0,0,0,.06-0.09V13.23a0.43,0.43,0,0,1-.21-0.09l-0.14,0,0,0h0V13.07L3.76,13,4,12.91l0.08-.07a0.28,0.28,0,0,1,.19-0.07l0.14,0,0.17,0,0.1,0,0.63,0,0.06,0.06,0.08,0,0,0,0.14,0,0.32,0,0.33,0a0.71,0.71,0,0,1,.37.11l0.08-.05,0.14,0,0.09,0H7.06l0.11,0a0.38,0.38,0,0,1,.21.2,0.44,0.44,0,0,1-.08.24l0,0.09H7.19a0.08,0.08,0,0,0-.09.08v0.14l-0.17.07-0.14.13-0.38.2-0.12.11v0L6.4,14.33l0.11,0.09,0.1,0,0,0,0.25,0.08c0,0.12,0,.18.07,0.18a0.18,0.18,0,0,0,.13-0.06h0.1a0.24,0.24,0,0,1,.13,0,0.19,0.19,0,0,1,.07.09H7.46l0.06,0.05,0.06,0L8,15v0.08l0.08,0a0.25,0.25,0,0,1,.18.17,0.29,0.29,0,0,1,0,.12,0.26,0.26,0,0,0,.14.1l0.06,0a0.61,0.61,0,0,1,.16.32,0.15,0.15,0,0,1-.06.08l0,0V16A0.61,0.61,0,0,1,8.72,16.31ZM8,16.58v0l-0.06-.34c0-.17,0-0.28-0.06-0.33a0.3,0.3,0,0,0-.08-0.14,0.64,0.64,0,0,1-.1-0.14l0-.11,0-.06-0.15,0H7.36a1,1,0,0,0-.21-0.18L6.57,15l-0.11-.07-0.18,0-0.13-.15A0.19,0.19,0,0,0,6,14.68a0.08,0.08,0,0,0-.07.07l-0.09,0v0.05H5.77l-0.08,0-0.19,0H5.32l-0.18,0-0.26,0a0.51,0.51,0,0,0-.21.07l0,0.33-0.11.12v0.12c0,0.14,0,.22,0,0.24a0.54,0.54,0,0,0,.06.11l0,0.21V16.1l0,0.09a0.4,0.4,0,0,1-.05.22,0.36,0.36,0,0,0,.05.2l-0.13.12v0.16l0.11,0,0,0.08,0,0.27,0.07,0.24a0.29,0.29,0,0,1-.31.16l0,0.06,0.14,0,0.1,0.08,0.11,0,0.29,0.06,0.3,0,0.4,0.09,0.38,0H6.72a0.29,0.29,0,0,0,.13,0L7,18l0.13-.06,0.14-.13,0.22-.14a0.58,0.58,0,0,0,.18-0.25l0.12-.26L7.84,17l0-.16ZM6.5,13.36a1.34,1.34,0,0,0-.56-0.21l-0.11,0-0.09-.05-0.09,0-0.4,0-0.18,0a1.51,1.51,0,0,0-.45.09v0.08l0,0.29-0.12.19v0.12l0.15,0L4.7,14c0,0.12,0,.19,0,0.22a0.36,0.36,0,0,1,0,.17l0.17-.06,0,0H5.33l0.1,0a0.2,0.2,0,0,0,.11.05l0.06,0,0.14-.13L6.13,14a0.63,0.63,0,0,0,.19-0.13,0.55,0.55,0,0,0,.13-0.18A0.83,0.83,0,0,0,6.5,13.36Z"/><path class="cls-1" d="M13.6,16.15l-0.09,0,0,0.09-0.09.06a0.27,0.27,0,0,0,0,.09l0.07,0.05V16.5a1.7,1.7,0,0,1-.33.92,2,2,0,0,1-.18.23l-0.14.16-0.12,0L12,18.2l-0.41,0-0.3.07H11l-0.12,0-0.35-.06H10.37l-0.08-.09-0.22,0L10,18.06l-0.22-.17L9.63,17.8l0,0L9.5,17.59l-0.12-.1-0.09-.25,0-.1,0,0a0.12,0.12,0,0,1,0-.07l0.07,0,0-.06-0.13-.08V16.7a1.43,1.43,0,0,1,0-.33A2.07,2.07,0,0,1,9.4,16a1.14,1.14,0,0,1,.23-0.39l0.16-.11,0.09-.15A0.24,0.24,0,0,1,10,15.22l0.37-.2,0.21-.17,0.25-.09,0.44-.15,0.36,0H11.9c0.16,0,.24,0,0.24.13l0.09,0.06a0.19,0.19,0,0,0,.13-0.11l0.1,0,0.25,0.09,0.11,0.09L13,14.94l0.14,0.22a0.28,0.28,0,0,0,.23.08,0.81,0.81,0,0,1,.15.28,4,4,0,0,1,.09.5Zm-0.57.1-0.14-.45,0-.2,0-.07H12.75l0,0-0.19-.24-0.06-.1L12.12,15,12,14.87a0.1,0.1,0,0,0-.08,0l-0.16,0-0.16,0-0.11,0H11.33l-0.27.1L11,14.89l0,0.06-0.27.16-0.49.42-0.09.08a1.39,1.39,0,0,1-.18.46l-0.05.09v0a0.16,0.16,0,0,1,0,.11,0.2,0.2,0,0,1-.11,0l0,0.06h0l0.12,0.14,0,0.09a0.32,0.32,0,0,0-.12.14l0,0a0.1,0.1,0,0,1,.07,0,0,0,0,0,1,0,0L10,17.11l0.2,0.33,0,0.2a0.1,0.1,0,0,0,.07,0,0.15,0.15,0,0,0,.1,0l0.08,0,0.47,0.29,0.48,0,0.27,0L11.92,18l0.2,0,0.25-.26,0.18-.05,0.09-.1,0.21-.43L13,17A0.15,0.15,0,0,0,13,16.9v0L13,16.7Z"/><path class="cls-1" d="M17.86,17.9a0.2,0.2,0,0,1-.12.14l-0.45.2A0.24,0.24,0,0,1,17.17,18V17.79l-0.07,0-0.26.12-0.36.18-0.15.07-0.47.09-0.15,0H15.62l-0.14-.06-0.18.05-0.16-.14-0.31,0-0.14-.07A0.75,0.75,0,0,1,14.54,18a0.6,0.6,0,0,1-.18-0.4,0.18,0.18,0,0,1,.08-0.13l-0.13,0V17a0.35,0.35,0,0,1,0-.16l0.07-.14-0.07-.22V16l0.08-.27V15.71l-0.07,0,0-.05V15.14a0.47,0.47,0,0,0,0-.17l0,0h0a0.15,0.15,0,0,1,.09-0.12l0,0,0.29-.12,0.19-.05a0.14,0.14,0,0,1,.11.11l0,0.09a1.21,1.21,0,0,0-.08.41l0,0.23v0.09l-0.07.19c0,0.07,0,.12,0,0.15v0.07a0.32,0.32,0,0,0,0,.12l0.07,0.11-0.09.3,0,0.09,0,0.17,0,0.23a0.1,0.1,0,0,0,0,0l0.05,0.1,0,0.42a0.23,0.23,0,0,0,.1.16,1.67,1.67,0,0,0,.32.12l0.29,0.08,0.26,0a0.6,0.6,0,0,0,.2,0l0.22-.09,0.24,0.06a0.14,0.14,0,0,0,.08-0.13l0.13-.07,0.18-.24,0.14-.12A0.42,0.42,0,0,0,17.14,17l0-.4,0-.09-0.09-.09V16.33l0-.62,0-.21,0-.24a0.2,0.2,0,0,1,.07-0.13l0-.07H17.07l0-.12v0l0-.12V14.7l0.06,0,0.43-.15h0a0.09,0.09,0,0,1,.07.07,0.52,0.52,0,0,1,0,.19l0,0.79-0.06.61-0.11,0a0.48,0.48,0,0,0,0,.15l0,0.08,0.07,0,0.06,0a0.07,0.07,0,0,1,0,.05l0,0.74,0.08,0.14,0,0.38,0.05,0.06Z"/><path class="cls-1" d="M22.74,18v0.08l-0.08,0-0.27,0-0.29,0a0.77,0.77,0,0,0,0-.2A0.14,0.14,0,0,0,22,17.9L21.91,18l-0.09,0-0.1,0a3.94,3.94,0,0,1-1.64.23,0.94,0.94,0,0,1-.33,0,0.27,0.27,0,0,1-.16-0.15,0.17,0.17,0,0,0-.11.06l-0.12,0a0.28,0.28,0,0,0,0-.11,0.2,0.2,0,0,0-.09-0.06l-0.05,0A0.53,0.53,0,0,1,19,17.9a1.91,1.91,0,0,1-.22-0.21,0.25,0.25,0,0,0,0-.09,0.19,0.19,0,0,0-.08-0.16l-0.11-.11,0-.08-0.07-.3V16.88a0.9,0.9,0,0,1,.05-0.29V16.51l0-.09,0.25-.57A0.17,0.17,0,0,1,19,15.72h0.14l0-.33,0.15-.12,0.16-.18L19.61,15,19.68,15l0.08,0h0.09l0.1,0L20,15a0.34,0.34,0,0,1,.2-0.13V14.76l0.11,0,0.19-.06,0.1,0h0.14l0.18-.06L21,14.63l0.08,0,0,0,0.05,0a0.17,0.17,0,0,0,.09-0.11l0.21,0,0.29,0.08a0.29,0.29,0,0,1,.11.1H22.1l0-.08,0-.07,0-.28,0-.08,0-.2,0-.54V13.54l0.13,0-0.05-.08,0-.11L22,13.13a0.5,0.5,0,0,1,0-.19v0l0-.56,0-.25L22,12a0.09,0.09,0,0,0,.08-0.08L22,11.85a0.3,0.3,0,0,1-.15-0.05V11.7l0-.24,0-.27a0.17,0.17,0,0,0-.09-0.13,0.19,0.19,0,0,1,.13-0.16l0.24-.05,0.16-.1,0.18,0,0.09,0a0.3,0.3,0,0,1,.08.2V11l0,0.21V11.3l0,0.34v0.29l0,0.17v0.36a0.57,0.57,0,0,1-.09.16L22.53,13l0,0.09v0.19l0,0.08,0,0.27a0.45,0.45,0,0,1,0,.15H22.39a0.73,0.73,0,0,0,0,.18,0,0,0,0,0,0,0l0.14,0.19V14.4l0,0.33,0,0.13V15l-0.05.07,0,0.37v0.26l0,0.25v0.17l0,0.19v0.31l0.06,0.31v0.25l0,0.18v0.28a0.29,0.29,0,0,1,.07.16A1,1,0,0,1,22.74,18ZM22.1,16.38l0-.25A0.12,0.12,0,0,1,22,16v0l0-.17,0-.31V15.47l0-.09V15.29a0,0,0,0,0,0-.05,0,0,0,0,1,0,0l-0.16,0H21.61l-0.73-.18h-0.4l-0.14.05H20.17l-0.23.15-0.16,0-0.11.08-0.16.14a0.4,0.4,0,0,0-.11.17l0,0.1L19.23,16l-0.16.24a0.53,0.53,0,0,0-.07.22,0.35,0.35,0,0,0,0,.15l0,0.07L19.15,17l0.09,0.16v0.14l0.09,0a2,2,0,0,0,.23.26,1.12,1.12,0,0,0,.25.18L20,17.81l0.06,0,0.12,0h0.1l0.22,0.08h0.25l0.39,0a1.17,1.17,0,0,0,.29-0.06l0.27-.1,0.18-.15L22,17.51l0-.1,0-.11V17l0-.18V16.7l0-.18v0C21.92,16.44,22,16.4,22.1,16.38Z"/><path class="cls-1" d="M27.59,18v0.08l-0.08,0-0.27,0-0.29,0a0.77,0.77,0,0,0,0-.2,0.14,0.14,0,0,0-.06-0.07L26.77,18l-0.09,0-0.1,0a3.94,3.94,0,0,1-1.64.23,0.94,0.94,0,0,1-.33,0,0.27,0.27,0,0,1-.16-0.15,0.17,0.17,0,0,0-.11.06l-0.12,0a0.28,0.28,0,0,0,0-.11,0.2,0.2,0,0,0-.09-0.06L24,18a0.53,0.53,0,0,1-.19-0.08,1.91,1.91,0,0,1-.22-0.21,0.25,0.25,0,0,0,0-.09,0.19,0.19,0,0,0-.08-0.16l-0.11-.11,0-.08-0.07-.3V16.88a0.9,0.9,0,0,1,.05-0.29V16.51l0-.09,0.25-.57a0.17,0.17,0,0,1,.15-0.12H24l0-.33,0.15-.12,0.16-.18L24.47,15,24.54,15l0.08,0h0.09l0.1,0L24.87,15a0.34,0.34,0,0,1,.2-0.13V14.76l0.11,0,0.19-.06,0.1,0h0.14l0.18-.06,0.09,0.05,0.08,0,0,0,0.05,0a0.17,0.17,0,0,0,.09-0.11l0.21,0,0.29,0.08a0.29,0.29,0,0,1,.11.1H27l0-.08,0-.07,0-.28,0-.08,0-.2,0-.54V13.54l0.13,0-0.05-.08,0-.11-0.05-.18a0.5,0.5,0,0,1,0-.19v0l0-.56,0-.25,0-.11a0.09,0.09,0,0,0,.08-0.08l-0.05-.05a0.3,0.3,0,0,1-.15-0.05V11.7l0-.24,0-.27a0.17,0.17,0,0,0-.09-0.13,0.19,0.19,0,0,1,.13-0.16L27,10.85l0.16-.1,0.18,0,0.09,0a0.3,0.3,0,0,1,.08.2V11l0,0.21V11.3l0,0.34v0.29l0,0.17v0.36a0.57,0.57,0,0,1-.09.16L27.39,13l0,0.09v0.19l0,0.08,0,0.27a0.45,0.45,0,0,1,0,.15H27.25a0.73,0.73,0,0,0,0,.18,0,0,0,0,0,0,0l0.14,0.19V14.4l0,0.33,0,0.13V15l-0.05.07,0,0.37v0.26l0,0.25v0.17l0,0.19v0.31l0.06,0.31v0.25l0,0.18v0.28a0.29,0.29,0,0,1,.07.16A1,1,0,0,1,27.59,18ZM27,16.38l0-.25a0.12,0.12,0,0,1-.1-0.1v0l0-.17,0-.31V15.47l0-.09V15.29a0,0,0,0,0,0-.05,0,0,0,0,1,0,0l-0.16,0H26.47l-0.73-.18h-0.4l-0.14.05H25l-0.23.15-0.16,0-0.11.08-0.16.14a0.4,0.4,0,0,0-.11.17l0,0.1L24.09,16l-0.16.24a0.53,0.53,0,0,0-.07.22,0.35,0.35,0,0,0,0,.15l0,0.07L24,17l0.09,0.16v0.14l0.09,0a2,2,0,0,0,.23.26,1.12,1.12,0,0,0,.25.18l0.18,0.08,0.06,0,0.12,0h0.1l0.22,0.08h0.25l0.39,0a1.17,1.17,0,0,0,.29-0.06l0.27-.1,0.18-.15,0.09-.11,0-.1,0-.11V17l0-.18V16.7l0-.18v0C26.78,16.44,26.84,16.4,27,16.38Z"/><path class="cls-1" d="M32.08,15.49v0.26a0.88,0.88,0,0,1,0,.19,0.44,0.44,0,0,1-.09.12L32,16.21l-0.11.16L32,16.49v0.65L32,17.22l0,0.12,0,0.29V18a0.13,0.13,0,0,1-.15.12H31.76l-0.24.13-0.08,0-0.16-.14,0-.11,0.15-.43-0.06-.32,0.09-.35a1.58,1.58,0,0,0,0-.31,0.14,0.14,0,0,1-.1-0.12,0.8,0.8,0,0,1,.05-0.25,0.7,0.7,0,0,0,0-.21v0l0-.29,0-.15,0-.07-0.06-.13a0.11,0.11,0,0,0-.07-0.08l-0.14,0L31,15.12H30.83l-0.24,0H30.09l-0.22.07-0.21.12-0.17.06-0.1.09-0.12.14-0.08.1,0.05,0.24,0,0.6v0l-0.05,0,0,0H29.08l0,0.08,0.11,0.15h0l0,0.34,0,0.18,0,0.12v0l0,0.08,0,0.36-0.05.11H29.13l-0.07,0h-0.1l-0.07.06a0.52,0.52,0,0,1-.2.13l0-.09,0,0V18.05l0-.18V17.71l0.09-.14,0-.09a0.37,0.37,0,0,1-.09-0.18l0-1.16,0-.36,0.16-.28,0-.09-0.05.05a0.3,0.3,0,0,1-.07-0.1,0.43,0.43,0,0,1,0-.14v-0.9l0-.14h0.05l0.08-.08A0.14,0.14,0,0,1,28.8,14a0.2,0.2,0,0,1-.11-0.11v-0.3l0-.46,0-.12,0-.08-0.09-.11V12.7l0-.1,0-.09,0-.09a0.52,0.52,0,0,1-.1-0.17V11.5l-0.09-.37V11.05L28.44,11a0.21,0.21,0,0,1,.1-0.12l0.31-.16a0.7,0.7,0,0,1,.27-0.09c0.08,0,.13,0,0.13.06l0,0.27v0.5a0.17,0.17,0,0,1-.07.16l-0.09,0a0.1,0.1,0,0,0-.06.11s0,0.06,0,.14h0a0.27,0.27,0,0,1,.16-0.08v0.07l0,0.73v0.23l-0.1.2v0.09a0.44,0.44,0,0,1,.13.22v0l-0.05.1h0l0,0.33,0,0v0.05l0,0.12,0,0.17,0,0.14,0,0.1,0,0.65v0.05l0,0,0.59-.45,0.06,0,0.25-.1,0.15,0,0.18,0a0.16,0.16,0,0,1,.14.16H30.7l0.08-.06,0.09-.09,0.18,0,0.46,0,0.22,0.22L31.85,15l0.06,0.11-0.09.05,0.09,0,0.06,0A0.52,0.52,0,0,1,32.08,15.49Z"/><path class="cls-1" d="M36.48,17.87l0,0.08L36.38,18l-0.11,0-0.16.09-0.15,0-0.17.06a0.07,0.07,0,0,1-.05,0,0.08,0.08,0,0,1,0-.05,0.85,0.85,0,0,1,0-.18,0.48,0.48,0,0,0,0-.14l-0.08.05-0.35.12a0.48,0.48,0,0,1-.21.05H35l-0.18.09-0.13,0-0.36.07-0.15,0-0.11,0-0.08,0H33.86l-0.26-.05-0.18,0a0.64,0.64,0,0,1-.31-0.12,0.6,0.6,0,0,1-.19-0.26l-0.11,0,0-.1V17.64l-0.06-.18,0.15-.29,0-.13a0.56,0.56,0,0,1,.14-0.15l0.31-.25,0.13,0,0.22-.09h0a0.3,0.3,0,0,1,.3-0.17l0,0h0.08a0.31,0.31,0,0,1,.1-0.09l0.19-.05,0.49-.09,0.14,0,0.18,0,0.33,0a0.17,0.17,0,0,0,.17-0.16,0,0,0,0,0,0,0l0-.18,0-.25a0.18,0.18,0,0,0-.06-0.12,0.28,0.28,0,0,0-.14,0l-0.05-.09A0.71,0.71,0,0,0,35.35,15a0.56,0.56,0,0,0-.21-0.07l-0.22-.05H34.71l-0.11,0-0.05,0a0.19,0.19,0,0,1,0-.07l-0.11,0-0.12.11-0.38.19a0.44,0.44,0,0,0-.16.13l-0.05.08a0.12,0.12,0,0,1-.11.06l-0.08,0-0.11-.05-0.12,0-0.12-.07a0.13,0.13,0,0,1-.06-0.09s0,0,0,0l0.07,0,0.13-.1,0.14,0,0.21-.11,0.26-.09,0.07,0,0.17-.09,0.14,0,0.47-.1H35.1l0.16,0.05,0.47,0.09,0.07,0v0.05l-0.05,0c0,0.09,0,.14.1,0.14h0l0.11,0h0A0,0,0,0,1,36,15l0.08,0.14,0.08,0.06v0.09l0,0.2a0.28,0.28,0,0,0,.13.22l0.05,0.58-0.11.14,0.12,0.14V16.6l0,0.37,0,0.28V17.4l-0.05,0v0.13a0.37,0.37,0,0,0,0,.08l0.06,0.12Zm-0.62-.68a0.29,0.29,0,0,1-.07-0.09l0-.16,0-.36,0-.11-0.12-.07-0.07,0-0.36,0H35.1L35,16.32l-0.08,0H34.67l-0.15.06-0.09-.05-0.11.07-0.59.28-0.13.09L33.5,17l-0.14.08a0.1,0.1,0,0,0,0,.07v0l0,0v0l0.09,0.35-0.09.22,0.06,0.08,0.11-.12,0.1,0.08,0.11,0.05,0.17,0L34,18l0.27,0L34.35,18l0.08,0,0.05,0,0,0,0.11,0a0.66,0.66,0,0,0,.31-0.11l0,0,0.06,0a0.57,0.57,0,0,0,.47-0.14l0.08-.1,0.19-.16v-0.1a0.13,0.13,0,0,0,.07,0A0.29,0.29,0,0,0,35.86,17.19Z"/><path class="cls-1" d="M44.91,12.81a0.35,0.35,0,0,1-.05.16l0,0.24,0,0.17-0.12.42,0,0.11-0.09,0-0.06,0,0,0.09,0.11,0a0.6,0.6,0,0,1,0,.14,0.25,0.25,0,0,1-.07.08,0.58,0.58,0,0,1-.11.38l-0.12.18v0.12l0,0.13,0,0.13-0.09.19v0.11a0.87,0.87,0,0,1-.08.24l0,0.12-0.05,0a0.18,0.18,0,0,1-.08.1l0,0.13,0,0,0,0.11-0.12.31-0.09.18v0.18l0,0.11,0.05,0.14,0,0.08-0.11.16,0,0.16,0,0.1,0,0.11-0.1.14,0,0.18a0.34,0.34,0,0,1-.09.16,0.19,0.19,0,0,1-.14.06l-0.09,0a0.27,0.27,0,0,0,0-.1L42.91,18l-0.06-.35-0.05-.18H42.73V17.25l0.08,0a0.32,0.32,0,0,0-.07-0.11,0.27,0.27,0,0,0-.12-0.05l0-.19,0-.11a0.14,0.14,0,0,0,.07-0.06l0,0h0l0-.08-0.11-.43-0.13-.22-0.09-.43-0.13-.26-0.06-.08,0.07,0a0.19,0.19,0,0,0,0-.07A0.13,0.13,0,0,0,42.14,15H42.06L42,15V14.75L42,14.6V14.53a0.09,0.09,0,0,0-.08-0.05,0,0,0,0,0,0,0l-0.15.56-0.08.08-0.08.13-0.08.2v0.2a0.23,0.23,0,0,1-.14.2V16l0,0.1v0.22l-0.06.08,0,0.09,0,0,0,0.09L41,17l0,0.21,0,0.1a0.42,0.42,0,0,0,0,.1,0.34,0.34,0,0,0,0,.15l-0.09,0a0.18,0.18,0,0,0,0,.08l0,0,0,0.13,0,0.26a0.19,0.19,0,0,1-.07.08l-0.06.05v0a0.38,0.38,0,0,1-.11-0.12,1.13,1.13,0,0,1-.08-0.22l-0.09-.29-0.09-.43a1.63,1.63,0,0,0-.12-0.25l0-.08,0.08-.14a0.16,0.16,0,0,0-.07-0.09l0,0-0.14,0,0-.11,0-.25,0-.07L40,16l0-.06H39.87l-0.15-.37,0-.07V15.33l-0.11,0,0-.12-0.08-.13-0.14-.35-0.09-.09-0.08-.29,0-.07,0-.11a0.11,0.11,0,0,0,0-.09L39,14l-0.12-.42-0.18-.27h0a0.46,0.46,0,0,1,.13-0.19H39L39,13,39.08,13l0.14-.07,0.11-.07a0.29,0.29,0,0,1,.14.18l0.12,0.48,0,0.1a0.32,0.32,0,0,1-.15.06H39.38a0.17,0.17,0,0,0,.19.15h0.08l0,0.12,0.06,0.17,0.07,0.1,0,0.1a0.31,0.31,0,0,1,.09.17,0.12,0.12,0,0,1-.1.09,0.29,0.29,0,0,1,0,.12,0.21,0.21,0,0,1,0,.11l0.08,0.06,0.11,0V15l0.13,0.14,0,0.14,0,0.13,0,0a0.4,0.4,0,0,1,.14.17,3.8,3.8,0,0,1,.22.83c0,0.21.1,0.31,0.18,0.31h0l0.09-.15,0.11-.11L41,16.4a0.18,0.18,0,0,1-.07-0.12,0.07,0.07,0,0,1,0-.05l0.2-.32,0-.24,0.13-.38V15.16l0-.14v-0.3l0.06-.11,0-.15,0.06-.14V14.16l0.06-.29,0.07-.42,0.08-.07,0.06-.09,0-.09,0-.09A0.33,0.33,0,0,0,42,13l0.15,0,0.06,0.11,0.09,0.08a0.64,0.64,0,0,1,.06.3v0.1l-0.1,0a0.29,0.29,0,0,0,0,.17,0.17,0.17,0,0,0,.13,0l0.05,0.31,0,0.07,0.12,0.25v0.13l-0.06,0,0.09,0.11a0.12,0.12,0,0,1-.11.08,0.25,0.25,0,0,0,.06.1l0.1,0a1.23,1.23,0,0,1,.11.48H42.8l0,0.08,0.07,0.09,0,0.3L43,16.32l0.06,0.25a0.22,0.22,0,0,0,.14.09l0,0.1,0-.11,0.16-.38V16.19L43.58,16l0.07-.12-0.07-.09,0-.06,0.07-.06L43.85,15l0.07-.11L44,14.48l0.09-.34,0-.05A0.17,0.17,0,0,0,44.18,14l0-.08-0.07-.09,0.07-.24,0-.15V13.23l0.09-.08L44.43,13l0.31-.15,0.05-.09h0.09A0.05,0.05,0,0,1,44.91,12.81Z"/><path class="cls-1" d="M49.23,16.15l-0.09,0,0,0.09-0.09.06a0.27,0.27,0,0,0,0,.09l0.07,0.05V16.5a1.7,1.7,0,0,1-.33.92,2,2,0,0,1-.18.23l-0.14.16-0.12,0-0.74.34-0.41,0-0.3.07H46.62l-0.12,0-0.35-.06H46l-0.08-.09-0.22,0-0.1-.05-0.22-.17-0.12-.09,0,0-0.09-.17L45,17.49l-0.09-.25,0-.1,0,0a0.12,0.12,0,0,1,0-.07L45,17l0-.06-0.13-.08V16.7a1.43,1.43,0,0,1,0-.33A2.07,2.07,0,0,1,45,16a1.14,1.14,0,0,1,.23-0.39l0.16-.11,0.09-.15a0.24,0.24,0,0,1,.11-0.11L46,15l0.21-.17,0.25-.09,0.44-.15,0.36,0h0.29c0.16,0,.24,0,0.24.13l0.09,0.06A0.19,0.19,0,0,0,48,14.65l0.1,0,0.25,0.09,0.11,0.09,0.15,0.09,0.14,0.22a0.28,0.28,0,0,0,.23.08,0.81,0.81,0,0,1,.15.28,4,4,0,0,1,.09.5Zm-0.57.1-0.14-.45,0-.2,0-.07H48.38l0,0-0.19-.24-0.06-.1L47.75,15l-0.08-.12a0.1,0.1,0,0,0-.08,0l-0.16,0-0.16,0-0.11,0H47l-0.27.1-0.06-.05,0,0.06-0.27.16-0.49.42-0.09.08a1.39,1.39,0,0,1-.18.46l-0.05.09v0a0.16,0.16,0,0,1,0,.11,0.2,0.2,0,0,1-.11,0l0,0.06h0l0.12,0.14,0,0.09a0.32,0.32,0,0,0-.12.14l0,0a0.1,0.1,0,0,1,.07,0,0,0,0,0,1,0,0l0.09,0.29,0.2,0.33,0,0.2a0.1,0.1,0,0,0,.07,0,0.15,0.15,0,0,0,.1,0l0.08,0,0.47,0.29L47,18l0.27,0L47.55,18l0.2,0L48,17.67l0.18-.05,0.09-.1,0.21-.43L48.6,17a0.15,0.15,0,0,0,.05-0.09v0l-0.06-.18Z"/><path class="cls-1" d="M53.78,17.8a0.57,0.57,0,0,1-.09.22l0,0a0.29,0.29,0,0,1-.21.18l-0.21,0-0.08,0H53.07l-0.16-.05-0.24-.07-0.2-.09L52.39,18v-0.1c0-.07,0-0.1-0.14-0.1H52.17l0,0.05-0.09-.05-0.51-.42-0.12,0-0.63-.52-0.05,0,0,0a0.08,0.08,0,0,0,0,.06h0l0.09,1a0.15,0.15,0,0,1-.05.1,0.23,0.23,0,0,1-.1.06l-0.27.06-0.1.07-0.09,0a0.19,0.19,0,0,1-.05-0.11v0l0.07-.47,0-.78H50.2a0.18,0.18,0,0,0,0-.1V16.74a0.17,0.17,0,0,1-.12-0.12,0.92,0.92,0,0,1,.11-0.26,0.11,0.11,0,0,0-.11-0.07V16.17l0-.38V15.55l0-.3a0.18,0.18,0,0,0,.07-0.06,0.25,0.25,0,0,0,0-.11l-0.1,0,0-1.12a0.13,0.13,0,0,0,.1-0.11,0.46,0.46,0,0,0,0-.13l-0.08-.06V13.47L50,13l0-.4,0-.16,0,0V12.36l-0.05-.46V11.45l0-.11,0-.26,0-.07L50,11l0.09,0,0.21-.17,0.08-.07,0.11,0,0.07-.05,0.05,0V10.7h0l0,0.21,0,0.66,0,0.36a1.59,1.59,0,0,0,0,.3l-0.07.06,0,0.34,0,0.07H50.6V13l0,0.17v0.08l0,0.3,0,0.55v0.37h0l0,0.25v0a0.21,0.21,0,0,0,0,.1L50.68,15h0l0,0.23v0l0,0.47v0.28l0,0.26h0a0.61,0.61,0,0,0,0,.17l0.05,0,0.18-.15,0.25-.17,0.52-.54,0.5-.51,0.24-.29a1.46,1.46,0,0,1,.39-0.29l0.11,0.08a0.2,0.2,0,0,1,.11.12,0.54,0.54,0,0,1-.17.31l-0.08,0-0.11,0a0.33,0.33,0,0,0-.05.1,0.55,0.55,0,0,0-.23,0v0.09a0.18,0.18,0,0,1-.06.15l-0.23.18L52,15.8H51.88a0.3,0.3,0,0,1-.06.15l-0.17.1-0.14.13-0.12.1a0.19,0.19,0,0,0-.11.16,0.25,0.25,0,0,0,.15.18,1.73,1.73,0,0,1,.48.34L52,17.23a0.47,0.47,0,0,0,.22.13l0.1-.06,0.47,0.21a0.08,0.08,0,0,1,.06.08v0L53,17.73l0.06-.06,0.18,0.06,0.11,0H53.5l0.11,0a0.16,0.16,0,0,1,.11-0.05h0.05A0,0,0,0,1,53.78,17.8Z"/></svg>